<?xml version="1.0" encoding="UTF-8" standalone="no"?>
<svg
   xmlns:dc="http://purl.org/dc/elements/1.1/"
   xmlns:cc="http://creativecommons.org/ns#"
   xmlns:rdf="http://www.w3.org/1999/02/22-rdf-syntax-ns#"
   xmlns:svg="http://www.w3.org/2000/svg"
   xmlns="http://www.w3.org/2000/svg"
   xml:space="preserve"
   enable-background="new 0 0 168 166"
   viewBox="0 0 168 166"
   y="0px"
   x="0px"
   id="Layer_1"
   version="1.1"><metadata
     id="metadata13"><rdf:RDF><cc:Work
         rdf:about=""><dc:format>image/svg+xml</dc:format><dc:type
           rdf:resource="http://purl.org/dc/dcmitype/StillImage" /><dc:title></dc:title></cc:Work></rdf:RDF></metadata><defs
     id="defs11" /><path
     id="path28_1_"
     d="m 160.1,61.5 c 0,22.5 -18.3,40.8 -40.8,40.8 -22.5,0 -40.9,-18.2 -40.9,-40.8 0,-22.6 18.3,-40.8 40.8,-40.8 22.5,0 40.9,18.3 40.9,40.8"
     style="fill:#ffffff" /><path
     id="path32_1_"
     d="m 11.2,12.5 12.6,33 -12.6,33 12.6,33 -12.6,33 7.7,2.9 41.9,-41.9 7.5,1.2 9.1,-9.1 C 72,91.4 68,83.9 65.8,75.7 l 4.3,-3.5 C 69.4,68.8 69,65.3 69,61.6 69,43.5 78.7,27.5 93.1,18.7 l -16,-6.1 -33,12.6 -32.9,-12.7 z"
     style="fill:#ffffff" /><path
     id="path36_1_"
     d="m 151.4,100.1 c -8.7,7.3 -19.9,11.6 -32.1,11.6 -3.6,0 -7.2,-0.4 -10.6,-1.1 l -3.5,4.3 c -7.8,-2.1 -14.9,-5.8 -21,-10.8 l -9.4,9.5 1.2,7 -35.1,35.1 3.4,1.3 33,-12.6 33,12.6 33,-12.6 12.6,-33 -4.5,-11.3 0,0 z"
     style="fill:#f2f2f2" /><path
     id="path102472_1_"
     d="m 151.4,100.1 c -8.7,7.3 -19.9,11.6 -32.1,11.6 -3.6,0 -7.2,-0.4 -10.6,-1.1 l -3.5,4.3 -21,-11.1 -9.4,9.7 1.2,7 34.3,5.2 -0.1,31.3 33,-12.6 12.6,-33 -4.4,-11.3 z"
     style="fill:#e5e6e6" /></svg>